G04*
G04 #@! TF.GenerationSoftware,Altium Limited,Altium Designer,18.1.9 (240)*
G04*
G04 Layer_Color=16711935*
%FSLAX25Y25*%
%MOIN*%
G70*
G01*
G75*
%ADD10C,0.01968*%
D10*
X389764Y531496D02*
X388764Y531494D01*
X387765Y531488D01*
X386765Y531478D01*
X385766Y531464D01*
X384767Y531447D01*
X383768Y531425D01*
X382768Y531399D01*
X381769Y531369D01*
X380770Y531335D01*
X379772Y531298D01*
X378773Y531256D01*
X377775Y531211D01*
X376776Y531161D01*
X375778Y531108D01*
X374781Y531050D01*
X373783Y530989D01*
X372786Y530923D01*
X371789Y530854D01*
X370792Y530781D01*
X369795Y530704D01*
X368799Y530622D01*
X367803Y530537D01*
X366808Y530448D01*
X365813Y530355D01*
X364818Y530258D01*
X363824Y530157D01*
X362830Y530052D01*
X361836Y529944D01*
X360843Y529831D01*
X359850Y529714D01*
X358858Y529594D01*
X357867Y529469D01*
X356875Y529341D01*
X355885Y529208D01*
X354895Y529072D01*
X353905Y528931D01*
X352916Y528787D01*
X351928Y528639D01*
X350940Y528487D01*
X349953Y528331D01*
X348966Y528171D01*
X347980Y528007D01*
X346995Y527840D01*
X346010Y527668D01*
X345026Y527493D01*
X344043Y527313D01*
X343060Y527130D01*
X342079Y526943D01*
X341097Y526752D01*
X340117Y526557D01*
X339138Y526358D01*
X338159Y526155D01*
X337181Y525948D01*
X336204Y525738D01*
X335228Y525523D01*
X334253Y525305D01*
X333278Y525083D01*
X332305Y524857D01*
X331332Y524627D01*
X330360Y524394D01*
X329389Y524156D01*
X328419Y523914D01*
X327450Y523669D01*
X326483Y523420D01*
X325516Y523167D01*
X324550Y522910D01*
X323585Y522650D01*
X322621Y522386D01*
X321658Y522117D01*
X320696Y521845D01*
X319736Y521569D01*
X318776Y521290D01*
X317818Y521006D01*
X316861Y520719D01*
X315904Y520428D01*
X314949Y520133D01*
X313996Y519834D01*
X313043Y519532D01*
X312092Y519226D01*
X311141Y518916D01*
X310192Y518602D01*
X309245Y518284D01*
X308298Y517963D01*
X307353Y517638D01*
X306409Y517309D01*
X305467Y516977D01*
X304526Y516641D01*
X303586Y516301D01*
X302647Y515957D01*
X301710Y515610D01*
X300774Y515258D01*
X299840Y514903D01*
X298907Y514545D01*
X297975Y514183D01*
X297045Y513817D01*
X296117Y513447D01*
X295190Y513074D01*
X294264Y512697D01*
X293340Y512316D01*
X292417Y511932D01*
X291496Y511544D01*
X290577Y511152D01*
X289659Y510757D01*
X288742Y510358D01*
X287827Y509956D01*
X286914Y509550D01*
X286003Y509140D01*
X285093Y508726D01*
X284184Y508309D01*
X283278Y507889D01*
X282373Y507465D01*
X281469Y507037D01*
X280568Y506605D01*
X279668Y506171D01*
X278770Y505732D01*
X277873Y505290D01*
X276979Y504844D01*
X276086Y504395D01*
X275195Y503942D01*
X274306Y503486D01*
X273418Y503026D01*
X272532Y502563D01*
X271649Y502097D01*
X270767Y501626D01*
X269887Y501153D01*
X269008Y500675D01*
X268132Y500195D01*
X267258Y499710D01*
X266385Y499223D01*
X265515Y498732D01*
X264646Y498237D01*
X263780Y497739D01*
X262915Y497237D01*
X262053Y496733D01*
X261192Y496224D01*
X260334Y495713D01*
X259477Y495197D01*
X258623Y494679D01*
X257770Y494157D01*
X256920Y493632D01*
X256072Y493103D01*
X255226Y492571D01*
X254382Y492036D01*
X253540Y491497D01*
X252700Y490955D01*
X251862Y490410D01*
X251027Y489861D01*
X250194Y489309D01*
X249363Y488754D01*
X248534Y488195D01*
X247707Y487634D01*
X246883Y487068D01*
X246061Y486500D01*
X245241Y485928D01*
X244423Y485354D01*
X243608Y484775D01*
X242795Y484194D01*
X241984Y483609D01*
X241176Y483022D01*
X240370Y482431D01*
X239566Y481836D01*
X238765Y481239D01*
X237966Y480639D01*
X237170Y480035D01*
X236375Y479428D01*
X235584Y478818D01*
X234794Y478205D01*
X234008Y477589D01*
X233223Y476969D01*
X232441Y476347D01*
X231662Y475721D01*
X230885Y475092D01*
X230110Y474461D01*
X229338Y473826D01*
X228569Y473188D01*
X227802Y472547D01*
X227037Y471903D01*
X226275Y471256D01*
X225516Y470606D01*
X224760Y469953D01*
X224006Y469297D01*
X223254Y468638D01*
X222505Y467976D01*
X221759Y467311D01*
X221015Y466643D01*
X220274Y465972D01*
X219536Y465298D01*
X218801Y464621D01*
X218068Y463942D01*
X217338Y463259D01*
X216610Y462574D01*
X215885Y461886D01*
X215163Y461194D01*
X214444Y460500D01*
X213728Y459803D01*
X213014Y459104D01*
X212303Y458401D01*
X211595Y457696D01*
X210890Y456988D01*
X210187Y456277D01*
X209487Y455563D01*
X208790Y454847D01*
X208096Y454127D01*
X207405Y453405D01*
X206717Y452681D01*
X206031Y451953D01*
X205349Y451223D01*
X204669Y450490D01*
X203993Y449754D01*
X203319Y449016D01*
X202648Y448275D01*
X201980Y447532D01*
X201315Y446785D01*
X200653Y446037D01*
X199994Y445285D01*
X199338Y444531D01*
X198685Y443774D01*
X198035Y443015D01*
X197388Y442253D01*
X196744Y441489D01*
X196103Y440722D01*
X195465Y439953D01*
X194830Y439181D01*
X194199Y438406D01*
X193570Y437629D01*
X192944Y436849D01*
X192322Y436068D01*
X191702Y435283D01*
X191086Y434496D01*
X190473Y433707D01*
X189863Y432915D01*
X189256Y432121D01*
X188652Y431324D01*
X188052Y430525D01*
X187454Y429724D01*
X186860Y428920D01*
X186269Y428114D01*
X185681Y427306D01*
X185097Y426495D01*
X184515Y425682D01*
X183937Y424867D01*
X183362Y424049D01*
X182791Y423229D01*
X182222Y422407D01*
X181657Y421583D01*
X181095Y420756D01*
X180537Y419927D01*
X179981Y419096D01*
X179429Y418263D01*
X178881Y417428D01*
X178335Y416590D01*
X177793Y415750D01*
X177255Y414908D01*
X176719Y414064D01*
X176187Y413218D01*
X175659Y412370D01*
X175133Y411520D01*
X174611Y410667D01*
X174093Y409813D01*
X173578Y408956D01*
X173066Y408098D01*
X172558Y407237D01*
X172053Y406374D01*
X171551Y405510D01*
X171053Y404643D01*
X170559Y403775D01*
X170068Y402904D01*
X169580Y402032D01*
X169096Y401157D01*
X168615Y400281D01*
X168138Y399403D01*
X167664Y398523D01*
X167194Y397641D01*
X166727Y396757D01*
X166264Y395871D01*
X165804Y394984D01*
X165348Y394094D01*
X164895Y393203D01*
X164446Y392310D01*
X164000Y391416D01*
X163558Y390519D01*
X163120Y389621D01*
X162685Y388721D01*
X162253Y387820D01*
X161826Y386916D01*
X161401Y386011D01*
X160981Y385105D01*
X160564Y384196D01*
X160151Y383286D01*
X159741Y382375D01*
X159335Y381461D01*
X158932Y380546D01*
X158533Y379630D01*
X158138Y378712D01*
X157746Y377792D01*
X157358Y376871D01*
X156974Y375949D01*
X156593Y375024D01*
X156216Y374099D01*
X155843Y373171D01*
X155473Y372243D01*
X155107Y371313D01*
X154745Y370381D01*
X154387Y369448D01*
X154032Y368514D01*
X153681Y367578D01*
X153333Y366641D01*
X152990Y365702D01*
X152650Y364762D01*
X152313Y363821D01*
X151981Y362879D01*
X151652Y361935D01*
X151327Y360990D01*
X151006Y360043D01*
X150688Y359095D01*
X150374Y358146D01*
X150065Y357196D01*
X149758Y356245D01*
X149456Y355292D01*
X149157Y354338D01*
X148862Y353383D01*
X148571Y352427D01*
X148284Y351470D01*
X148001Y350511D01*
X147721Y349552D01*
X147445Y348591D01*
X147173Y347629D01*
X146905Y346666D01*
X146640Y345703D01*
X146380Y344738D01*
X146123Y343772D01*
X145870Y342805D01*
X145621Y341837D01*
X145376Y340868D01*
X145134Y339898D01*
X144897Y338927D01*
X144663Y337955D01*
X144433Y336982D01*
X144207Y336009D01*
X143985Y335034D01*
X143767Y334059D01*
X143552Y333083D01*
X143342Y332106D01*
X143135Y331128D01*
X142933Y330149D01*
X142734Y329169D01*
X142539Y328189D01*
X142348Y327208D01*
X142160Y326226D01*
X141977Y325244D01*
X141798Y324260D01*
X141622Y323276D01*
X141451Y322292D01*
X141283Y321306D01*
X141119Y320320D01*
X140960Y319334D01*
X140804Y318347D01*
X140652Y317359D01*
X140503Y316370D01*
X140359Y315381D01*
X140219Y314391D01*
X140083Y313401D01*
X139950Y312411D01*
X139822Y311420D01*
X139697Y310428D01*
X139577Y309436D01*
X139460Y308443D01*
X139347Y307450D01*
X139238Y306456D01*
X139134Y305462D01*
X139033Y304468D01*
X138936Y303473D01*
X138843Y302478D01*
X138754Y301482D01*
X138669Y300486D01*
X138587Y299490D01*
X138510Y298494D01*
X138437Y297497D01*
X138367Y296500D01*
X138302Y295502D01*
X138241Y294505D01*
X138183Y293507D01*
X138130Y292509D01*
X138080Y291511D01*
X138035Y290512D01*
X137993Y289513D01*
X137956Y288515D01*
X137922Y287516D01*
X137892Y286517D01*
X137866Y285518D01*
X137845Y284518D01*
X137827Y283519D01*
X137813Y282520D01*
X137803Y281520D01*
X137797Y280521D01*
X137795Y279528D01*
X531496Y137795D02*
Y531496D01*
X137795Y279528D02*
X200787Y279528D01*
X137795Y137795D02*
Y263779D01*
X200787D02*
Y279528D01*
X137795Y263779D02*
X200787D01*
X389764Y468504D02*
Y531496D01*
Y468504D02*
X405512D01*
Y531496D01*
X263779Y263779D02*
X405512D01*
X263779Y279528D02*
X389764D01*
X405512Y531496D02*
X531496Y531496D01*
X389764Y405512D02*
X389764Y279528D01*
X263779Y263779D02*
Y279528D01*
X389764Y405512D02*
X405512D01*
X405512D02*
X405512Y263779D01*
X137795Y137795D02*
X531496D01*
M02*
