M48
;Layer_Color=9474304
;FILE_FORMAT=2:5
INCH,LZ
;TYPE=PLATED
T1F00S00C0.03937
%
T01
X0207677Y0263779
X0213583
X0219488
X0225394
X0231299
X0237205
X024311
X0249016
X0254921
Y0279528
X0249016
X024311
X0237205
X0231299
X0225394
X0219488
X0213583
X0207677
X0389764Y041437
Y0420276
Y0426181
Y0432087
Y0437992
Y0443898
Y0449803
Y0455709
Y0461614
X0405512
Y0455709
Y0449803
Y0443898
Y0437992
Y0432087
Y0426181
Y0420276
Y041437
M30
