G04*
G04 #@! TF.GenerationSoftware,Altium Limited,Altium Designer,18.1.9 (240)*
G04*
G04 Layer_Physical_Order=1*
G04 Layer_Color=255*
%FSLAX25Y25*%
%MOIN*%
G70*
G01*
G75*
%ADD11C,0.07874*%
G36*
X531496Y531496D02*
Y137795D01*
X137795D01*
Y263779D01*
X200787D01*
Y279528D01*
X137795Y279528D01*
X137795Y284476D01*
X138184Y294364D01*
X138960Y304230D01*
X140123Y314057D01*
X141672Y323831D01*
X143602Y333537D01*
X145912Y343160D01*
X148599Y352684D01*
X151656Y362096D01*
X155082Y371380D01*
X158869Y380523D01*
X163012Y389510D01*
X167505Y398328D01*
X172340Y406962D01*
X177511Y415400D01*
X183009Y423628D01*
X188825Y431634D01*
X194952Y439405D01*
X201379Y446931D01*
X208096Y454197D01*
X215094Y461195D01*
X222361Y467912D01*
X229886Y474339D01*
X237657Y480466D01*
X245663Y486283D01*
X253892Y491781D01*
X262330Y496951D01*
X270964Y501787D01*
X279781Y506280D01*
X288768Y510423D01*
X297911Y514210D01*
X307195Y517635D01*
X316607Y520693D01*
X326132Y523379D01*
X335754Y525689D01*
X345460Y527620D01*
X355234Y529168D01*
X365062Y530331D01*
X374927Y531108D01*
X384816Y531496D01*
X389764D01*
Y468504D01*
X405512D01*
Y531496D01*
X531496Y531496D01*
D02*
G37*
%LPC*%
G36*
X405512Y407535D02*
X389764D01*
X388990Y407381D01*
X388333Y406942D01*
X387895Y406286D01*
X387741Y405512D01*
Y281551D01*
X263779D01*
X263005Y281397D01*
X262349Y280958D01*
X261910Y280302D01*
X261756Y279528D01*
Y263779D01*
X261910Y263005D01*
X262349Y262349D01*
X263005Y261910D01*
X263779Y261756D01*
X405512D01*
X406286Y261910D01*
X406942Y262349D01*
X407381Y263005D01*
X407535Y263779D01*
Y405512D01*
X407381Y406286D01*
X406942Y406942D01*
X406286Y407381D01*
X405512Y407535D01*
D02*
G37*
%LPD*%
G36*
X403489Y265803D02*
X265803D01*
Y277504D01*
X389764D01*
X390538Y277658D01*
X391194Y278097D01*
X391633Y278753D01*
X391787Y279528D01*
Y403489D01*
X403489D01*
Y265803D01*
D02*
G37*
D11*
X213583Y279528D02*
D03*
X225394D02*
D03*
X237205D02*
D03*
X249016D02*
D03*
Y263779D02*
D03*
X237205D02*
D03*
X225394D02*
D03*
X213583D02*
D03*
X389764Y455709D02*
D03*
Y443898D02*
D03*
Y432087D02*
D03*
Y420276D02*
D03*
X405512D02*
D03*
Y432087D02*
D03*
Y443898D02*
D03*
Y455709D02*
D03*
Y461614D02*
D03*
Y449803D02*
D03*
Y437992D02*
D03*
Y426181D02*
D03*
Y414370D02*
D03*
X389764D02*
D03*
Y426181D02*
D03*
Y437992D02*
D03*
Y449803D02*
D03*
Y461614D02*
D03*
X207677Y263779D02*
D03*
X219488D02*
D03*
X231299D02*
D03*
X243110D02*
D03*
X254921D02*
D03*
Y279528D02*
D03*
X243110D02*
D03*
X231299D02*
D03*
X219488D02*
D03*
X207677D02*
D03*
M02*
