G04*
G04 #@! TF.GenerationSoftware,Altium Limited,Altium Designer,18.1.9 (240)*
G04*
G04 Layer_Color=65535*
%FSLAX25Y25*%
%MOIN*%
G70*
G01*
G75*
G36*
X397734Y369150D02*
X403002Y368398D01*
X408205Y367274D01*
X413314Y365785D01*
X418305Y363936D01*
X423152Y361739D01*
X427832Y359204D01*
X432320Y356344D01*
X436594Y353172D01*
X440632Y349706D01*
X444415Y345962D01*
X447923Y341960D01*
X451138Y337718D01*
X454045Y333260D01*
X456628Y328607D01*
X458875Y323782D01*
X460775Y318811D01*
X461767Y315532D01*
X462645Y314895D01*
X465334Y312598D01*
X467834Y310098D01*
X470131Y307409D01*
X472209Y304548D01*
X474057Y301533D01*
X475662Y298382D01*
X477015Y295115D01*
X478108Y291752D01*
X478933Y288313D01*
X479486Y284821D01*
X479764Y281295D01*
X479764Y279527D01*
X479764D01*
X479764Y279527D01*
Y279527D01*
X469764Y279527D01*
X469715Y281490D01*
X469331Y285397D01*
X468565Y289247D01*
X467425Y293003D01*
X465923Y296630D01*
X464647Y299018D01*
X464733Y297962D01*
X464787Y292640D01*
X464465Y287328D01*
X463766Y282051D01*
X462696Y276838D01*
X461259Y271714D01*
X459462Y266704D01*
X457314Y261835D01*
X454827Y257129D01*
X452013Y252612D01*
X448885Y248306D01*
X445460Y244232D01*
X441755Y240411D01*
X437789Y236863D01*
X434764Y234520D01*
X434764Y232760D01*
X434486Y229235D01*
X433933Y225742D01*
X433637Y224508D01*
X435265Y225196D01*
X439424Y227350D01*
X443402Y229822D01*
X447175Y232597D01*
X450720Y235658D01*
X454015Y238986D01*
X457041Y242561D01*
X459779Y246361D01*
X462212Y250363D01*
X464326Y254543D01*
X466106Y258875D01*
X467544Y263333D01*
X468629Y267889D01*
X469355Y272516D01*
X469719Y277186D01*
X469764Y279527D01*
X469764Y279527D01*
X479764Y279527D01*
X479764Y276866D01*
X479387Y271558D01*
X478634Y266289D01*
X477510Y261087D01*
X476021Y255978D01*
X474173Y250987D01*
X471976Y246139D01*
X469440Y241460D01*
X466580Y236972D01*
X463408Y232698D01*
X459942Y228659D01*
X456198Y224876D01*
X452196Y221369D01*
X447955Y218153D01*
X443496Y215247D01*
X438843Y212663D01*
X434019Y210416D01*
X429047Y208517D01*
X425768Y207524D01*
X425131Y206647D01*
X422834Y203958D01*
X420334Y201457D01*
X417645Y199161D01*
X414784Y197082D01*
X411769Y195235D01*
X408618Y193629D01*
X405351Y192276D01*
X401988Y191183D01*
X398550Y190358D01*
X395057Y189805D01*
X391532Y189528D01*
X389764Y189528D01*
Y189528D01*
X389764Y189528D01*
X389764D01*
X389764Y199528D01*
X391726Y199576D01*
X395633Y199961D01*
X399483Y200726D01*
X403239Y201866D01*
X406866Y203368D01*
X409254Y204645D01*
X408198Y204559D01*
X402876Y204504D01*
X397564Y204827D01*
X392288Y205525D01*
X387074Y206595D01*
X381950Y208033D01*
X376940Y209830D01*
X372071Y211977D01*
X367366Y214464D01*
X362848Y217279D01*
X358542Y220406D01*
X354468Y223831D01*
X350648Y227536D01*
X347099Y231502D01*
X344756Y234528D01*
X342996Y234527D01*
X339471Y234805D01*
X335978Y235358D01*
X334744Y235654D01*
X335432Y234027D01*
X337586Y229868D01*
X340058Y225890D01*
X342833Y222116D01*
X345894Y218571D01*
X349222Y215276D01*
X352797Y212250D01*
X356597Y209512D01*
X360600Y207079D01*
X364779Y204966D01*
X369111Y203185D01*
X373569Y201748D01*
X378125Y200662D01*
X382752Y199936D01*
X387422Y199573D01*
X389764Y199528D01*
X389764Y199528D01*
X389764Y189528D01*
X387103Y189528D01*
X381794Y189905D01*
X376525Y190657D01*
X371323Y191781D01*
X366214Y193271D01*
X361223Y195119D01*
X356375Y197316D01*
X351696Y199851D01*
X347208Y202712D01*
X342934Y205883D01*
X338895Y209349D01*
X335113Y213093D01*
X331605Y217096D01*
X328390Y221337D01*
X325483Y225795D01*
X322900Y230448D01*
X320653Y235273D01*
X318753Y240244D01*
X317760Y243523D01*
X316883Y244161D01*
X314194Y246457D01*
X311694Y248958D01*
X309397Y251646D01*
X307318Y254507D01*
X305471Y257522D01*
X303866Y260673D01*
X302512Y263940D01*
X301420Y267303D01*
X300594Y270742D01*
X300041Y274234D01*
X299764Y277760D01*
X299764Y279528D01*
X309764D01*
X309812Y277565D01*
X310197Y273658D01*
X310963Y269809D01*
X312102Y266052D01*
X313604Y262425D01*
X314881Y260037D01*
X314795Y261093D01*
X314740Y266415D01*
X315063Y271728D01*
X315761Y277004D01*
X316832Y282217D01*
X318269Y287341D01*
X320066Y292351D01*
X322213Y297221D01*
X324700Y301926D01*
X327515Y306443D01*
X330642Y310749D01*
X334067Y314823D01*
X337772Y318644D01*
X341739Y322192D01*
X344764Y324535D01*
X344764Y326295D01*
X345041Y329821D01*
X345594Y333313D01*
X345890Y334547D01*
X344263Y333859D01*
X340104Y331705D01*
X336126Y329233D01*
X332353Y326458D01*
X328808Y323397D01*
X325512Y320069D01*
X322486Y316494D01*
X319748Y312694D01*
X317315Y308692D01*
X315202Y304512D01*
X313421Y300180D01*
X311984Y295722D01*
X310899Y291166D01*
X310172Y286539D01*
X309809Y281870D01*
X309764Y279528D01*
X309764D01*
X299764Y279528D01*
X299764Y282189D01*
X300141Y287497D01*
X300893Y292766D01*
X302017Y297968D01*
X303507Y303078D01*
X305355Y308069D01*
X307552Y312916D01*
X310087Y317596D01*
X312948Y322083D01*
X316119Y326358D01*
X319585Y330396D01*
X323329Y334179D01*
X327332Y337686D01*
X331573Y340902D01*
X336031Y343808D01*
X340684Y346392D01*
X345509Y348639D01*
X350481Y350538D01*
X353759Y351531D01*
X354397Y352409D01*
X356693Y355097D01*
X359194Y357598D01*
X361883Y359894D01*
X364743Y361973D01*
X367759Y363821D01*
X370909Y365426D01*
X374176Y366779D01*
X377539Y367872D01*
X380978Y368697D01*
X384471Y369250D01*
X387996Y369528D01*
X389764Y369527D01*
Y359527D01*
X387801Y359479D01*
X383895Y359095D01*
X380045Y358329D01*
X376288Y357189D01*
X372662Y355687D01*
X370273Y354410D01*
X371330Y354496D01*
X376652Y354551D01*
X381964Y354228D01*
X387240Y353530D01*
X392453Y352460D01*
X397578Y351022D01*
X402587Y349225D01*
X407457Y347078D01*
X412162Y344591D01*
X416679Y341776D01*
X420985Y338649D01*
X425059Y335224D01*
X428880Y331519D01*
X432429Y327553D01*
X434771Y324528D01*
X436532Y324528D01*
X440057Y324250D01*
X443549Y323697D01*
X444783Y323401D01*
X444096Y325028D01*
X441941Y329187D01*
X439469Y333166D01*
X436694Y336939D01*
X433634Y340484D01*
X430305Y343779D01*
X426730Y346805D01*
X422930Y349543D01*
X418928Y351976D01*
X414748Y354089D01*
X410416Y355870D01*
X405959Y357308D01*
X401402Y358393D01*
X396775Y359119D01*
X392106Y359483D01*
X389764Y359527D01*
Y359527D01*
X389764Y369527D01*
X392425Y369528D01*
X397734Y369150D01*
D02*
G37*
G36*
X232887Y382841D02*
X231638D01*
Y384090D01*
X232887D01*
Y382841D01*
D02*
G37*
G36*
X278470D02*
X279090D01*
Y381593D01*
X277841D01*
Y382841D01*
X276593D01*
Y378466D01*
X277841D01*
Y379715D01*
X279090D01*
Y378466D01*
X278470D01*
Y377847D01*
X275973D01*
Y378466D01*
X275344D01*
Y382841D01*
X275973D01*
Y383461D01*
X278470D01*
Y382841D01*
D02*
G37*
G36*
X284085Y377847D02*
X282837D01*
Y380344D01*
X281588D01*
Y377847D01*
X280339D01*
Y383461D01*
X281588D01*
Y380964D01*
X282837D01*
Y383461D01*
X284085D01*
Y377847D01*
D02*
G37*
G36*
X254744D02*
X253496D01*
Y379715D01*
X252867D01*
Y380344D01*
X252247D01*
Y380964D01*
X251618D01*
Y377847D01*
X250369D01*
Y383461D01*
X251618D01*
Y382212D01*
X252247D01*
Y381593D01*
X252867D01*
Y380964D01*
X253496D01*
Y383461D01*
X254744D01*
Y377847D01*
D02*
G37*
G36*
X274095Y380344D02*
X270349D01*
Y380964D01*
X274095D01*
Y380344D01*
D02*
G37*
G36*
X229769Y379095D02*
X229140D01*
Y377847D01*
X227891D01*
Y379095D01*
X227272D01*
Y381593D01*
X227891D01*
Y379095D01*
X228520D01*
Y382212D01*
X229769D01*
Y379095D01*
D02*
G37*
G36*
X259110Y378466D02*
X258490D01*
Y377847D01*
X255993D01*
Y378466D01*
X255364D01*
Y383461D01*
X256613D01*
Y378466D01*
X257861D01*
Y383461D01*
X259110D01*
Y378466D01*
D02*
G37*
G36*
X293456Y382841D02*
X294075D01*
Y380964D01*
X293456D01*
Y380344D01*
X291578D01*
Y377847D01*
X290329D01*
Y383461D01*
X293456D01*
Y382841D01*
D02*
G37*
G36*
X288460D02*
X287831D01*
Y378466D01*
X288460D01*
Y377847D01*
X285963D01*
Y378466D01*
X286583D01*
Y382841D01*
X285963D01*
Y383461D01*
X288460D01*
Y382841D01*
D02*
G37*
G36*
X266603Y378466D02*
X269100D01*
Y377847D01*
X265354D01*
Y383461D01*
X266603D01*
Y378466D01*
D02*
G37*
G36*
X261608D02*
X264105D01*
Y377847D01*
X260359D01*
Y383461D01*
X261608D01*
Y378466D01*
D02*
G37*
G36*
X241628Y382212D02*
X243506D01*
Y381593D01*
X244125D01*
Y377847D01*
X242877D01*
Y381593D01*
X241628D01*
Y377847D01*
X240379D01*
Y383461D01*
X241628D01*
Y382212D01*
D02*
G37*
G36*
X237262D02*
X239130D01*
Y381593D01*
X237262D01*
Y378466D01*
X239130D01*
Y377847D01*
X236633D01*
Y378466D01*
X236013D01*
Y381593D01*
X235384D01*
Y382212D01*
X236013D01*
Y383461D01*
X237262D01*
Y382212D01*
D02*
G37*
G36*
X232887Y378466D02*
X234135D01*
Y377847D01*
X230389D01*
Y378466D01*
X231638D01*
Y381593D01*
X230389D01*
Y382212D01*
X232887D01*
Y378466D01*
D02*
G37*
G36*
X226643Y379095D02*
X227272D01*
Y377847D01*
X226023D01*
Y379095D01*
X225394D01*
Y382212D01*
X226643D01*
Y379095D01*
D02*
G37*
G36*
X261636Y399759D02*
X262876D01*
Y398500D01*
X260378D01*
Y399759D01*
X257879D01*
Y397260D01*
X259137D01*
Y396002D01*
X260378D01*
Y394761D01*
X261636D01*
Y393503D01*
X262876D01*
Y391004D01*
X261636D01*
Y389764D01*
X256639D01*
Y391004D01*
X255380D01*
Y392263D01*
X257879D01*
Y391004D01*
X260378D01*
Y393503D01*
X259137D01*
Y394761D01*
X257879D01*
Y396002D01*
X256639D01*
Y397260D01*
X255380D01*
Y399759D01*
X256639D01*
Y400999D01*
X261636D01*
Y399759D01*
D02*
G37*
G36*
X352835Y396002D02*
X349096D01*
Y397260D01*
X350336D01*
Y398500D01*
X352835D01*
Y396002D01*
D02*
G37*
G36*
X234149Y389764D02*
X231650D01*
Y393503D01*
X230391D01*
Y394761D01*
X229151D01*
Y396002D01*
X227892D01*
Y389764D01*
X225394D01*
Y400999D01*
X227892D01*
Y398500D01*
X229151D01*
Y397260D01*
X230391D01*
Y396002D01*
X231650D01*
Y400999D01*
X234149D01*
Y389764D01*
D02*
G37*
G36*
X322849D02*
X316611D01*
Y391004D01*
X315352D01*
Y398500D01*
X317851D01*
Y391004D01*
X320350D01*
Y398500D01*
X322849D01*
Y389764D01*
D02*
G37*
G36*
X242886Y391004D02*
X241646D01*
Y388524D01*
X240387D01*
Y387265D01*
X239147D01*
Y386025D01*
X234149D01*
Y387265D01*
X237888D01*
Y388524D01*
X239147D01*
Y389764D01*
X236648D01*
Y391004D01*
X235389D01*
Y398500D01*
X237888D01*
Y391004D01*
X240387D01*
Y398500D01*
X242886D01*
Y391004D01*
D02*
G37*
G36*
X347837Y396002D02*
X349096D01*
Y394761D01*
X347837D01*
Y389764D01*
X345339D01*
Y398500D01*
X347837D01*
Y396002D01*
D02*
G37*
G36*
X341599Y397260D02*
X342840D01*
Y393503D01*
X337842D01*
Y391004D01*
X341599D01*
Y389764D01*
X336602D01*
Y391004D01*
X335343D01*
Y397260D01*
X336602D01*
Y398500D01*
X341599D01*
Y397260D01*
D02*
G37*
G36*
X330345Y391004D02*
X332844D01*
Y389764D01*
X325348D01*
Y391004D01*
X327847D01*
Y399759D01*
X325348D01*
Y400999D01*
X330345D01*
Y391004D01*
D02*
G37*
G36*
X311613Y399759D02*
X312853D01*
Y396002D01*
X311613D01*
Y393503D01*
X312853D01*
Y389764D01*
X310355D01*
Y393503D01*
X309114D01*
Y394761D01*
X307856D01*
Y389764D01*
X305357D01*
Y400999D01*
X311613D01*
Y399759D01*
D02*
G37*
G36*
X291622Y397260D02*
X292863D01*
Y389764D01*
X286625D01*
Y391004D01*
X285366D01*
Y393503D01*
X286625D01*
Y394761D01*
X290364D01*
Y397260D01*
X286625D01*
Y398500D01*
X291622D01*
Y397260D01*
D02*
G37*
G36*
X282867D02*
X284126D01*
Y389764D01*
X281627D01*
Y397260D01*
X280368D01*
Y391004D01*
X279128D01*
Y397260D01*
X277870D01*
Y389764D01*
X275371D01*
Y398500D01*
X282867D01*
Y397260D01*
D02*
G37*
G36*
X271632D02*
X272872D01*
Y389764D01*
X266634D01*
Y391004D01*
X265375D01*
Y393503D01*
X266634D01*
Y394761D01*
X270373D01*
Y397260D01*
X266634D01*
Y398500D01*
X271632D01*
Y397260D01*
D02*
G37*
G36*
X251641D02*
X252881D01*
Y389764D01*
X246643D01*
Y391004D01*
X245385D01*
Y393503D01*
X246643D01*
Y394761D01*
X250382D01*
Y397260D01*
X246643D01*
Y398500D01*
X251641D01*
Y397260D01*
D02*
G37*
G36*
X233515Y359003D02*
X234135D01*
Y358374D01*
X232886D01*
Y359003D01*
X231637D01*
Y357754D01*
X232266D01*
Y357125D01*
X232886D01*
Y356505D01*
X233515D01*
Y355876D01*
X234135D01*
Y354628D01*
X233515D01*
Y354008D01*
X231018D01*
Y354628D01*
X230389D01*
Y355257D01*
X231637D01*
Y354628D01*
X232886D01*
Y355876D01*
X232266D01*
Y356505D01*
X231637D01*
Y357125D01*
X231018D01*
Y357754D01*
X230389D01*
Y359003D01*
X231018D01*
Y359623D01*
X233515D01*
Y359003D01*
D02*
G37*
G36*
X258490D02*
X259110D01*
Y357754D01*
X257861D01*
Y359003D01*
X256612D01*
Y354628D01*
X257861D01*
Y355876D01*
X259110D01*
Y354628D01*
X258490D01*
Y354008D01*
X255993D01*
Y354628D01*
X255364D01*
Y359003D01*
X255993D01*
Y359623D01*
X258490D01*
Y359003D01*
D02*
G37*
G36*
X244754Y354008D02*
X243505D01*
Y355876D01*
X242876D01*
Y356505D01*
X242256D01*
Y357125D01*
X241627D01*
Y354008D01*
X240379D01*
Y359623D01*
X241627D01*
Y358374D01*
X242256D01*
Y357754D01*
X242876D01*
Y357125D01*
X243505D01*
Y359623D01*
X244754D01*
Y354008D01*
D02*
G37*
G36*
X229769D02*
X228520D01*
Y355876D01*
X227891D01*
Y356505D01*
X227271D01*
Y357125D01*
X226642D01*
Y354008D01*
X225394D01*
Y359623D01*
X226642D01*
Y358374D01*
X227271D01*
Y357754D01*
X227891D01*
Y357125D01*
X228520D01*
Y359623D01*
X229769D01*
Y354008D01*
D02*
G37*
G36*
X294075Y356505D02*
X290329D01*
Y357125D01*
X294075D01*
Y356505D01*
D02*
G37*
G36*
X313435Y359003D02*
X314055D01*
Y355876D01*
X313435D01*
Y355257D01*
X312806D01*
Y354008D01*
X310938D01*
Y354628D01*
X311557D01*
Y355257D01*
X312186D01*
Y355876D01*
X310938D01*
Y356505D01*
X310309D01*
Y359003D01*
X310938D01*
Y359623D01*
X313435D01*
Y359003D01*
D02*
G37*
G36*
X308440Y354008D02*
X307191D01*
Y357754D01*
X305314D01*
Y358374D01*
X306562D01*
Y359003D01*
X307191D01*
Y359623D01*
X308440D01*
Y354008D01*
D02*
G37*
G36*
X304065Y359003D02*
X304694D01*
Y354628D01*
X304065D01*
Y354008D01*
X301567D01*
Y354628D01*
X300948D01*
Y359003D01*
X301567D01*
Y359623D01*
X304065D01*
Y359003D01*
D02*
G37*
G36*
X298450D02*
X299070D01*
Y357125D01*
X298450D01*
Y356505D01*
X297821D01*
Y355876D01*
X297201D01*
Y355257D01*
X296572D01*
Y354628D01*
X299070D01*
Y354008D01*
X295324D01*
Y355257D01*
X295953D01*
Y355876D01*
X296572D01*
Y356505D01*
X297201D01*
Y357125D01*
X297821D01*
Y359003D01*
X296572D01*
Y357754D01*
X295324D01*
Y359003D01*
X295953D01*
Y359623D01*
X298450D01*
Y359003D01*
D02*
G37*
G36*
X287211Y356505D02*
X286582D01*
Y355876D01*
X287831D01*
Y358374D01*
X289080D01*
Y355876D01*
X289709D01*
Y355257D01*
X289080D01*
Y354008D01*
X287831D01*
Y355257D01*
X285334D01*
Y356505D01*
X285963D01*
Y359623D01*
X287211D01*
Y356505D01*
D02*
G37*
G36*
X283465Y354008D02*
X282216D01*
Y357754D01*
X280339D01*
Y358374D01*
X281587D01*
Y359003D01*
X282216D01*
Y359623D01*
X283465D01*
Y354008D01*
D02*
G37*
G36*
X279090Y359003D02*
X279719D01*
Y354628D01*
X279090D01*
Y354008D01*
X276592D01*
Y354628D01*
X275973D01*
Y359003D01*
X276592D01*
Y359623D01*
X279090D01*
Y359003D01*
D02*
G37*
G36*
X273475D02*
X274095D01*
Y357125D01*
X273475D01*
Y356505D01*
X272846D01*
Y355876D01*
X272226D01*
Y355257D01*
X271597D01*
Y354628D01*
X274095D01*
Y354008D01*
X270349D01*
Y355257D01*
X270978D01*
Y355876D01*
X271597D01*
Y356505D01*
X272226D01*
Y357125D01*
X272846D01*
Y359003D01*
X271597D01*
Y357754D01*
X270349D01*
Y359003D01*
X270978D01*
Y359623D01*
X273475D01*
Y359003D01*
D02*
G37*
G36*
X237881D02*
X238510D01*
Y358374D01*
X239130D01*
Y355257D01*
X238510D01*
Y354628D01*
X237881D01*
Y354008D01*
X235384D01*
Y359623D01*
X237881D01*
Y359003D01*
D02*
G37*
G36*
X262236D02*
X262856D01*
Y357754D01*
X263485D01*
Y354628D01*
X262856D01*
Y353388D01*
X262236D01*
Y352759D01*
X260988D01*
Y353388D01*
X261607D01*
Y354628D01*
X262236D01*
Y357754D01*
X261607D01*
Y359003D01*
X260988D01*
Y359623D01*
X262236D01*
Y359003D01*
D02*
G37*
G36*
X253495D02*
X252866D01*
Y357754D01*
X252246D01*
Y354628D01*
X252866D01*
Y353388D01*
X253495D01*
Y352759D01*
X252246D01*
Y353388D01*
X251617D01*
Y354628D01*
X250998D01*
Y357754D01*
X251617D01*
Y359003D01*
X252246D01*
Y359623D01*
X253495D01*
Y359003D01*
D02*
G37*
G36*
X249120Y372873D02*
X247251D01*
Y373502D01*
X247871D01*
Y374122D01*
X249120D01*
Y372873D01*
D02*
G37*
G36*
X268480Y374751D02*
X269100D01*
Y372873D01*
X268480D01*
Y372253D01*
X269100D01*
Y370376D01*
X268480D01*
Y369756D01*
X265983D01*
Y370376D01*
X265354D01*
Y371624D01*
X266602D01*
Y370376D01*
X267851D01*
Y372253D01*
X266602D01*
Y372873D01*
X267851D01*
Y374751D01*
X266602D01*
Y373502D01*
X265354D01*
Y374751D01*
X265983D01*
Y375371D01*
X268480D01*
Y374751D01*
D02*
G37*
G36*
X234135Y370376D02*
X233515D01*
Y369136D01*
X232886D01*
Y368507D01*
X232266D01*
Y367887D01*
X229769D01*
Y368507D01*
X231637D01*
Y369136D01*
X232266D01*
Y369756D01*
X231018D01*
Y370376D01*
X230389D01*
Y374122D01*
X231637D01*
Y370376D01*
X232886D01*
Y374122D01*
X234135D01*
Y370376D01*
D02*
G37*
G36*
X273475Y374751D02*
X274095D01*
Y372873D01*
X273475D01*
Y372253D01*
X272846D01*
Y371624D01*
X272226D01*
Y371005D01*
X271597D01*
Y370376D01*
X274095D01*
Y369756D01*
X270349D01*
Y371005D01*
X270978D01*
Y371624D01*
X271597D01*
Y372253D01*
X272226D01*
Y372873D01*
X272846D01*
Y374751D01*
X271597D01*
Y373502D01*
X270349D01*
Y374751D01*
X270978D01*
Y375371D01*
X273475D01*
Y374751D01*
D02*
G37*
G36*
X264105Y373502D02*
X264734D01*
Y369756D01*
X263485D01*
Y373502D01*
X262856D01*
Y370376D01*
X262236D01*
Y373502D01*
X261607D01*
Y369756D01*
X260359D01*
Y374122D01*
X264105D01*
Y373502D01*
D02*
G37*
G36*
X259110Y372873D02*
X258490D01*
Y372253D01*
X257861D01*
Y371624D01*
X257241D01*
Y371005D01*
X256612D01*
Y370376D01*
X259110D01*
Y369756D01*
X255364D01*
Y371005D01*
X255993D01*
Y371624D01*
X256612D01*
Y372253D01*
X257241D01*
Y372873D01*
X257861D01*
Y373502D01*
X255364D01*
Y374122D01*
X259110D01*
Y372873D01*
D02*
G37*
G36*
X254115D02*
X253495D01*
Y372253D01*
X252866D01*
Y371624D01*
X252246D01*
Y371005D01*
X251617D01*
Y370376D01*
X254115D01*
Y369756D01*
X250369D01*
Y371005D01*
X250998D01*
Y371624D01*
X251617D01*
Y372253D01*
X252246D01*
Y372873D01*
X252866D01*
Y373502D01*
X250369D01*
Y374122D01*
X254115D01*
Y372873D01*
D02*
G37*
G36*
X246622D02*
X247251D01*
Y372253D01*
X246622D01*
Y369756D01*
X245374D01*
Y374122D01*
X246622D01*
Y372873D01*
D02*
G37*
G36*
X244125Y369756D02*
X241008D01*
Y370376D01*
X240379D01*
Y373502D01*
X241008D01*
Y374122D01*
X242876D01*
Y375371D01*
X244125D01*
Y369756D01*
D02*
G37*
G36*
X226642Y374122D02*
X228520D01*
Y373502D01*
X229140D01*
Y370376D01*
X228520D01*
Y369756D01*
X225394D01*
Y375371D01*
X226642D01*
Y374122D01*
D02*
G37*
%LPC*%
G36*
X371535Y339519D02*
X366851Y339475D01*
X362185Y339066D01*
X357566Y338294D01*
X354023Y337413D01*
X353604Y336630D01*
X352102Y333003D01*
X350963Y329247D01*
X350848Y328673D01*
X355001Y331034D01*
X359802Y333330D01*
X364754Y335281D01*
X367293Y336078D01*
X366188Y334432D01*
X364076Y331075D01*
X362099Y327637D01*
X360261Y324124D01*
X358562Y320540D01*
X357008Y316892D01*
X355599Y313185D01*
X354338Y309425D01*
X353764Y307528D01*
X352065Y306202D01*
X352110Y306056D01*
X353613Y302431D01*
X355464Y298970D01*
X357645Y295708D01*
X360135Y292674D01*
X362910Y289899D01*
X365944Y287409D01*
X369207Y285228D01*
X372667Y283377D01*
X376292Y281873D01*
X380047Y280732D01*
X383896Y279965D01*
X387802Y279577D01*
X389764Y279528D01*
X387996Y279528D01*
X384471Y279805D01*
X380978Y280358D01*
X377540Y281184D01*
X374177Y282276D01*
X370910Y283629D01*
X367759Y285235D01*
X364744Y287083D01*
X361883Y289161D01*
X359194Y291457D01*
X356694Y293958D01*
X354397Y296647D01*
X352319Y299507D01*
X350471Y302522D01*
X349664Y304106D01*
X348399Y302994D01*
X345134Y299637D01*
X342140Y296035D01*
X339436Y292210D01*
X337039Y288187D01*
X334963Y283988D01*
X333221Y279640D01*
X331824Y275170D01*
X330779Y270604D01*
X330094Y265971D01*
X329773Y261298D01*
X329817Y256615D01*
X330226Y251949D01*
X330998Y247330D01*
X331878Y243787D01*
X332662Y243368D01*
X336288Y241866D01*
X340045Y240726D01*
X340619Y240612D01*
X338257Y244765D01*
X335961Y249566D01*
X334011Y254518D01*
X333213Y257057D01*
X334860Y255951D01*
X338216Y253840D01*
X341654Y251863D01*
X345168Y250024D01*
X348751Y248326D01*
X352399Y246771D01*
X356106Y245362D01*
X359866Y244102D01*
X361764Y243528D01*
X363089Y241829D01*
X363235Y241874D01*
X366861Y243377D01*
X370321Y245228D01*
X373584Y247409D01*
X376617Y249899D01*
X379393Y252674D01*
X381883Y255708D01*
X384064Y258970D01*
X385914Y262431D01*
X387418Y266056D01*
X388559Y269811D01*
X389327Y273660D01*
X389714Y277565D01*
X389764Y279528D01*
X389764Y277760D01*
X389486Y274234D01*
X388933Y270742D01*
X388108Y267303D01*
X387015Y263940D01*
X385662Y260673D01*
X384056Y257523D01*
X382209Y254508D01*
X380130Y251647D01*
X377834Y248958D01*
X375333Y246458D01*
X372645Y244161D01*
X369784Y242083D01*
X366769Y240235D01*
X365185Y239428D01*
X366297Y238163D01*
X369654Y234898D01*
X373256Y231904D01*
X377081Y229200D01*
X381105Y226803D01*
X385303Y224727D01*
X389651Y222985D01*
X394121Y221588D01*
X398687Y220543D01*
X403320Y219858D01*
X407993Y219536D01*
X412676Y219580D01*
X417342Y219989D01*
X421962Y220761D01*
X425505Y221642D01*
X425923Y222426D01*
X427425Y226052D01*
X428565Y229808D01*
X428679Y230383D01*
X424527Y228021D01*
X419725Y225725D01*
X414773Y223775D01*
X412235Y222977D01*
X413340Y224624D01*
X415451Y227980D01*
X417428Y231418D01*
X419267Y234931D01*
X420965Y238515D01*
X422520Y242163D01*
X423929Y245870D01*
X425190Y249630D01*
X425764Y251528D01*
X427462Y252853D01*
X427418Y252999D01*
X425914Y256624D01*
X424063Y260085D01*
X421882Y263348D01*
X419392Y266381D01*
X416617Y269156D01*
X413584Y271646D01*
X410321Y273827D01*
X406860Y275678D01*
X403235Y277182D01*
X399480Y278323D01*
X395631Y279091D01*
X391726Y279478D01*
X389764Y279528D01*
X391532Y279528D01*
X395057Y279250D01*
X398550Y278697D01*
X401988Y277871D01*
X405351Y276779D01*
X408618Y275426D01*
X411769Y273820D01*
X414784Y271973D01*
X417644Y269894D01*
X420333Y267598D01*
X422834Y265097D01*
X425130Y262408D01*
X427209Y259548D01*
X429056Y256533D01*
X429863Y254949D01*
X431128Y256061D01*
X434394Y259418D01*
X437388Y263020D01*
X440091Y266845D01*
X442488Y270868D01*
X444564Y275067D01*
X446306Y279415D01*
X447704Y283885D01*
X448748Y288451D01*
X449433Y293084D01*
X449755Y297757D01*
X449711Y302440D01*
X449302Y307106D01*
X448530Y311726D01*
X447649Y315268D01*
X446866Y315687D01*
X443239Y317189D01*
X439483Y318329D01*
X438909Y318443D01*
X441270Y314290D01*
X443567Y309489D01*
X445517Y304537D01*
X446314Y301998D01*
X444668Y303104D01*
X441311Y305215D01*
X437873Y307192D01*
X434360Y309031D01*
X430777Y310729D01*
X427128Y312284D01*
X423421Y313693D01*
X419662Y314953D01*
X417764Y315528D01*
X416439Y317226D01*
X416292Y317181D01*
X412667Y315678D01*
X409206Y313827D01*
X405944Y311646D01*
X402910Y309156D01*
X400135Y306381D01*
X397645Y303347D01*
X395464Y300085D01*
X393613Y296624D01*
X392110Y292999D01*
X390969Y289244D01*
X390201Y285395D01*
X389813Y281490D01*
X389764Y279528D01*
X389764Y281296D01*
X390041Y284821D01*
X390594Y288313D01*
X391420Y291752D01*
X392512Y295115D01*
X393866Y298382D01*
X395471Y301532D01*
X397319Y304548D01*
X399397Y307408D01*
X401694Y310097D01*
X404194Y312597D01*
X406883Y314894D01*
X409744Y316972D01*
X412759Y318820D01*
X414342Y319627D01*
X413231Y320892D01*
X409873Y324158D01*
X406271Y327151D01*
X402447Y329855D01*
X398423Y332252D01*
X394224Y334328D01*
X389877Y336070D01*
X385406Y337468D01*
X380841Y338512D01*
X376207Y339197D01*
X371535Y339519D01*
D02*
G37*
G36*
X292827Y382841D02*
X291578D01*
Y380964D01*
X292827D01*
Y382841D01*
D02*
G37*
G36*
X340341Y397260D02*
X337842D01*
Y394761D01*
X340341D01*
Y397260D01*
D02*
G37*
G36*
X310355Y399759D02*
X307856D01*
Y396002D01*
X310355D01*
Y399759D01*
D02*
G37*
G36*
X290364Y393503D02*
X287865D01*
Y391004D01*
X290364D01*
Y393503D01*
D02*
G37*
G36*
X270373D02*
X267874D01*
Y391004D01*
X270373D01*
Y393503D01*
D02*
G37*
G36*
X250382D02*
X247883D01*
Y391004D01*
X250382D01*
Y393503D01*
D02*
G37*
G36*
X312806Y359003D02*
X311557D01*
Y356505D01*
X312806D01*
Y359003D01*
D02*
G37*
G36*
X303445D02*
X302196D01*
Y356505D01*
X302816D01*
Y355257D01*
X302196D01*
Y354628D01*
X303445D01*
Y357125D01*
X302816D01*
Y358374D01*
X303445D01*
Y359003D01*
D02*
G37*
G36*
X278470D02*
X277221D01*
Y356505D01*
X277841D01*
Y355257D01*
X277221D01*
Y354628D01*
X278470D01*
Y357125D01*
X277841D01*
Y358374D01*
X278470D01*
Y359003D01*
D02*
G37*
G36*
X237261D02*
X236632D01*
Y354628D01*
X237261D01*
Y355257D01*
X237881D01*
Y358374D01*
X237261D01*
Y359003D01*
D02*
G37*
G36*
X242876Y373502D02*
X241627D01*
Y370376D01*
X242876D01*
Y373502D01*
D02*
G37*
G36*
X227891D02*
X226642D01*
Y370376D01*
X227891D01*
Y373502D01*
D02*
G37*
%LPD*%
M02*
