G04*
G04 #@! TF.GenerationSoftware,Altium Limited,Altium Designer,18.1.9 (240)*
G04*
G04 Layer_Color=16711935*
%FSLAX25Y25*%
%MOIN*%
G70*
G01*
G75*
%ADD10C,0.01968*%
G36*
X232283Y185039D02*
X230283D01*
Y205039D01*
X232283D01*
Y185039D01*
D02*
G37*
G36*
X229283D02*
X228284D01*
Y205039D01*
X229283D01*
Y185039D01*
D02*
G37*
G36*
X226284D02*
X223284D01*
Y205039D01*
X226284D01*
Y185039D01*
D02*
G37*
G36*
X221284D02*
X219284D01*
Y205039D01*
X221284D01*
Y185039D01*
D02*
G37*
G36*
X218284D02*
X216283D01*
Y205039D01*
X218284D01*
Y185039D01*
D02*
G37*
G36*
X214283D02*
X212283D01*
Y205039D01*
X214283D01*
Y185039D01*
D02*
G37*
G36*
X210283D02*
X209283D01*
Y205039D01*
X210283D01*
Y185039D01*
D02*
G37*
G36*
X207283D02*
X204283D01*
Y205039D01*
X207283D01*
Y185039D01*
D02*
G37*
G36*
X202284D02*
X200284D01*
Y205039D01*
X202284D01*
Y185039D01*
D02*
G37*
G36*
X199284D02*
X198284D01*
Y205039D01*
X199284D01*
Y185039D01*
D02*
G37*
G36*
X197283D02*
X195283D01*
Y205039D01*
X197283D01*
Y185039D01*
D02*
G37*
G36*
X192283D02*
X191284D01*
Y205039D01*
X192283D01*
Y185039D01*
D02*
G37*
G36*
X188284D02*
X186284D01*
Y205039D01*
X188284D01*
Y185039D01*
D02*
G37*
G36*
X183283D02*
X180283D01*
Y205039D01*
X183283D01*
Y185039D01*
D02*
G37*
G36*
X179283D02*
X178284D01*
Y205039D01*
X179283D01*
Y185039D01*
D02*
G37*
G36*
X177284D02*
X175284D01*
Y205039D01*
X177284D01*
Y185039D01*
D02*
G37*
G36*
X234252Y208661D02*
X232253D01*
Y213652D01*
X231245D01*
Y212660D01*
X230253D01*
Y211653D01*
X229246D01*
Y208661D01*
X227247D01*
Y217651D01*
X229246D01*
Y213652D01*
X230253D01*
Y214660D01*
X231245D01*
Y215652D01*
X232253D01*
Y217651D01*
X234252D01*
Y208661D01*
D02*
G37*
G36*
X210260D02*
X208260D01*
Y213652D01*
X207253D01*
Y212660D01*
X206261D01*
Y211653D01*
X205254D01*
Y208661D01*
X203255D01*
Y217651D01*
X205254D01*
Y213652D01*
X206261D01*
Y214660D01*
X207253D01*
Y215652D01*
X208260D01*
Y217651D01*
X210260D01*
Y208661D01*
D02*
G37*
G36*
X202262Y212660D02*
X196264D01*
Y213652D01*
X202262D01*
Y212660D01*
D02*
G37*
G36*
X185260Y216659D02*
X186268D01*
Y209654D01*
X185260D01*
Y208661D01*
X181262D01*
Y209654D01*
X180270D01*
Y211653D01*
X182269D01*
Y209654D01*
X184268D01*
Y216659D01*
X182269D01*
Y214660D01*
X180270D01*
Y216659D01*
X181262D01*
Y217651D01*
X185260D01*
Y216659D01*
D02*
G37*
G36*
X225248D02*
X226255D01*
Y214660D01*
X225248D01*
Y213652D01*
X224255D01*
Y212660D01*
X223248D01*
Y211653D01*
X222256D01*
Y209654D01*
X224255D01*
Y210661D01*
X226255D01*
Y209654D01*
X225248D01*
Y208661D01*
X221249D01*
Y209654D01*
X220256D01*
Y211653D01*
X221249D01*
Y212660D01*
X222256D01*
Y213652D01*
X223248D01*
Y214660D01*
X224255D01*
Y216659D01*
X222256D01*
Y215652D01*
X220256D01*
Y216659D01*
X221249D01*
Y217651D01*
X225248D01*
Y216659D01*
D02*
G37*
G36*
X218257Y208661D02*
X214259D01*
Y209654D01*
X213251D01*
Y210661D01*
X212259D01*
Y215652D01*
X213251D01*
Y216659D01*
X214259D01*
Y217651D01*
X218257D01*
Y208661D01*
D02*
G37*
G36*
X194265D02*
X192266D01*
Y212660D01*
X189259D01*
Y213652D01*
X188267D01*
Y216659D01*
X189259D01*
Y217651D01*
X194265D01*
Y208661D01*
D02*
G37*
G36*
X178270D02*
X173264D01*
Y209654D01*
X172272D01*
Y212660D01*
X173264D01*
Y213652D01*
X172272D01*
Y216659D01*
X173264D01*
Y217651D01*
X178270D01*
Y208661D01*
D02*
G37*
%LPC*%
G36*
X216258Y216659D02*
X215251D01*
Y215652D01*
X214259D01*
Y210661D01*
X215251D01*
Y209654D01*
X216258D01*
Y216659D01*
D02*
G37*
G36*
X192266D02*
X190266D01*
Y213652D01*
X192266D01*
Y216659D01*
D02*
G37*
G36*
X176271D02*
X174272D01*
Y213652D01*
X176271D01*
Y216659D01*
D02*
G37*
G36*
Y212660D02*
X174272D01*
Y209654D01*
X176271D01*
Y212660D01*
D02*
G37*
%LPD*%
D10*
X515748Y511811D02*
X531496D01*
X141623Y323281D02*
X172641Y317812D01*
X515748Y334646D02*
X531496D01*
X500000D02*
X531496D01*
X515748Y295276D02*
X531496D01*
X500000D02*
X531496D01*
X515748Y255906D02*
X531496D01*
X500000D02*
X531496D01*
X515748Y492126D02*
X531496D01*
X500000D02*
X531496D01*
X515748Y472441D02*
X531496D01*
X515748Y452756D02*
X531496D01*
X500000D02*
X531496D01*
X515748Y433071D02*
X531496D01*
X515748Y413386D02*
X531496D01*
X500000D02*
X531496D01*
X515748Y393701D02*
X531496D01*
X515748Y374016D02*
X531496D01*
X500000D02*
X531496D01*
X515748Y354331D02*
X531496D01*
X515748Y314961D02*
X531496D01*
X515748Y275591D02*
X531496D01*
X515748Y236221D02*
X531496D01*
X515748Y216535D02*
X531496D01*
X500000D02*
X531496D01*
X515748Y196850D02*
X531496D01*
X515748Y177165D02*
X531496D01*
X500000D02*
X531496D01*
X515748Y157480D02*
X531496D01*
X324550Y522910D02*
X328625Y507699D01*
X161403Y386014D02*
X175675Y379359D01*
X256241Y493209D02*
X260413Y486531D01*
X259990Y495507D02*
X264046Y488757D01*
X227801Y472547D02*
X232863Y466515D01*
X227801Y472547D02*
X237924Y460483D01*
X227801Y472547D02*
X248047Y448419D01*
X224458Y469691D02*
X229623Y463748D01*
X196745Y441490D02*
X202777Y436428D01*
X196745Y441490D02*
X208808Y431367D01*
X196745Y441490D02*
X220872Y421244D01*
X183363Y424051D02*
X196263Y415018D01*
X191210Y434655D02*
X197415Y429807D01*
X161403Y386014D02*
X168539Y382686D01*
X171553Y405512D02*
X198829Y389764D01*
X152991Y365706D02*
X182587Y354934D01*
X157826Y377979D02*
X165074Y374903D01*
X193948Y438097D02*
X200067Y433141D01*
X163296Y389983D02*
X170373Y386531D01*
X159579Y382012D02*
X166772Y378810D01*
X156143Y373917D02*
X163443Y370967D01*
X152991Y365706D02*
X167789Y360320D01*
X346010Y527668D02*
X351479Y496651D01*
X295375Y513149D02*
X298324Y505848D01*
X303586Y516300D02*
X308972Y501502D01*
X303586Y516300D02*
X314358Y486704D01*
X295276Y137795D02*
Y169291D01*
X287279Y509712D02*
X290482Y502519D01*
X263779Y497739D02*
X279528Y470462D01*
X283277Y507889D02*
X289933Y493616D01*
X231195Y475344D02*
X236150Y469225D01*
X238125Y480759D02*
X242864Y474470D01*
X234636Y478082D02*
X239484Y471877D01*
X245241Y485928D02*
X254273Y473028D01*
X255906Y137795D02*
Y169291D01*
X202515Y448127D02*
X208366Y442859D01*
X199601Y444834D02*
X205543Y439668D01*
X216535Y137795D02*
Y169291D01*
X523622Y511811D02*
X531496D01*
X523622Y519685D02*
X531496D01*
X523622Y527559D02*
X531496D01*
X523622Y488189D02*
X531496D01*
X523622Y496063D02*
X531496D01*
X523622Y503937D02*
X531496D01*
X523622Y350394D02*
X531496D01*
X523622Y326772D02*
X531496D01*
X523622Y334646D02*
X531496D01*
X523622Y342520D02*
X531496D01*
X523622Y318898D02*
X531496D01*
X523622Y287402D02*
X531496D01*
X523622Y295276D02*
X531496D01*
X523622Y303150D02*
X531496D01*
X523622Y311024D02*
X531496D01*
X523622Y255906D02*
X531496D01*
X523622Y263779D02*
X531496D01*
X523622Y271654D02*
X531496D01*
X523622Y279528D02*
X531496D01*
X523622Y232283D02*
X531496D01*
X523622Y240158D02*
X531496D01*
X523622Y248031D02*
X531496D01*
X519685Y137795D02*
Y145669D01*
X488189Y137795D02*
Y145669D01*
X496063Y137795D02*
Y145669D01*
X503937Y137795D02*
Y145669D01*
X511811Y137795D02*
Y145669D01*
Y137795D02*
Y153543D01*
X456693Y137795D02*
Y145669D01*
X464567Y137795D02*
Y145669D01*
X472441Y137795D02*
Y145669D01*
Y137795D02*
Y153543D01*
X480315Y137795D02*
Y145669D01*
X440945Y137795D02*
Y145669D01*
X448819Y137795D02*
Y145669D01*
X359056Y529618D02*
X360016Y521803D01*
X367803Y530537D02*
X368490Y522693D01*
X367803Y530537D02*
X369176Y514849D01*
X376577Y531151D02*
X376989Y523287D01*
X328807Y524012D02*
X330712Y516371D01*
X350347Y528394D02*
X351579Y520617D01*
X341686Y526867D02*
X343188Y519137D01*
X303586Y516300D02*
X306278Y508901D01*
X311901Y519164D02*
X314334Y511675D01*
X320312Y521735D02*
X322482Y514166D01*
X295276Y137795D02*
Y145669D01*
Y137795D02*
Y153543D01*
X303150Y137795D02*
Y145669D01*
X311024Y137795D02*
Y145669D01*
X263779Y497739D02*
X267717Y490920D01*
X271472Y502002D02*
X275168Y495050D01*
X279308Y505995D02*
X282760Y498918D01*
X263779Y497739D02*
X271654Y484100D01*
X267607Y499904D02*
X271424Y493017D01*
X263779Y137795D02*
Y145669D01*
X271654Y137795D02*
Y145669D01*
X279528Y137795D02*
Y145669D01*
X287402Y137795D02*
Y145669D01*
X248865Y488419D02*
X253268Y481891D01*
X245241Y485928D02*
X249757Y479478D01*
X252532Y490846D02*
X256820Y484242D01*
X232283Y137795D02*
Y145669D01*
X240158Y137795D02*
Y145669D01*
X248031Y137795D02*
Y145669D01*
X255906Y137795D02*
Y145669D01*
Y137795D02*
Y153543D01*
X217922Y463806D02*
X223292Y458047D01*
X214732Y460779D02*
X220201Y455114D01*
X211595Y457696D02*
X217163Y452128D01*
X208513Y454560D02*
X214177Y449090D01*
X205486Y451370D02*
X211244Y446000D01*
X211595Y457696D02*
X222731Y446561D01*
X221164Y466777D02*
X226433Y460925D01*
X200787Y137795D02*
Y145669D01*
X208661Y137795D02*
Y145669D01*
X216535Y137795D02*
Y145669D01*
Y137795D02*
Y153543D01*
X224410Y137795D02*
Y145669D01*
X185917Y427631D02*
X192287Y423003D01*
X183363Y424051D02*
X189813Y419534D01*
X180872Y420427D02*
X187400Y416023D01*
X178445Y416759D02*
X185049Y412471D01*
X188533Y431166D02*
X194821Y426427D01*
X169387Y401684D02*
X176274Y397867D01*
X165258Y393919D02*
X172274Y390344D01*
X173785Y409301D02*
X180534Y405245D01*
X171553Y405512D02*
X185191Y397638D01*
X192913Y137795D02*
Y145669D01*
X151523Y361561D02*
X158968Y358997D01*
X148805Y353196D02*
X156335Y350894D01*
X154531Y369825D02*
X161882Y367003D01*
X144253Y336208D02*
X151925Y334437D01*
X142425Y327605D02*
X150154Y326103D01*
X140897Y318944D02*
X148674Y317712D01*
X146381Y344742D02*
X153987Y342704D01*
X146381Y344742D02*
X161592Y340666D01*
X137949Y288321D02*
X145818Y288046D01*
X523622Y523622D02*
X531496D01*
X523622Y515748D02*
X531496D01*
X523622Y507874D02*
X531496D01*
X523622Y500000D02*
X531496D01*
X523622Y492126D02*
X531496D01*
X523622Y484252D02*
X531496D01*
X523622Y480315D02*
X531496D01*
X523622Y476378D02*
X531496D01*
X523622Y472441D02*
X531496D01*
X523622Y468504D02*
X531496D01*
X523622Y464567D02*
X531496D01*
X523622Y460630D02*
X531496D01*
X523622Y456693D02*
X531496D01*
X523622Y452756D02*
X531496D01*
X523622Y448819D02*
X531496D01*
X523622Y444882D02*
X531496D01*
X523622Y440945D02*
X531496D01*
X523622Y437008D02*
X531496D01*
X523622Y433071D02*
X531496D01*
X523622Y429134D02*
X531496D01*
X523622Y425197D02*
X531496D01*
X523622Y421260D02*
X531496D01*
X523622Y417323D02*
X531496D01*
X523622Y413386D02*
X531496D01*
X523622Y409449D02*
X531496D01*
X523622Y405512D02*
X531496D01*
X523622Y401575D02*
X531496D01*
X523622Y397638D02*
X531496D01*
X523622Y393701D02*
X531496D01*
X523622Y389764D02*
X531496D01*
X523622Y385827D02*
X531496D01*
X523622Y381890D02*
X531496D01*
X523622Y377953D02*
X531496D01*
X523622Y374016D02*
X531496D01*
X523622Y370079D02*
X531496D01*
X523622Y366142D02*
X531496D01*
X523622Y362205D02*
X531496D01*
X523622Y358268D02*
X531496D01*
X523622Y354331D02*
X531496D01*
X523622Y346457D02*
X531496D01*
X523622Y338583D02*
X531496D01*
X523622Y330709D02*
X531496D01*
X523622Y322835D02*
X531496D01*
X523622Y314961D02*
X531496D01*
X523622Y307087D02*
X531496D01*
X523622Y299213D02*
X531496D01*
X523622Y291339D02*
X531496D01*
X523622Y283465D02*
X531496D01*
X523622Y275591D02*
X531496D01*
X523622Y267717D02*
X531496D01*
X523622Y259842D02*
X531496D01*
X523622Y251969D02*
X531496D01*
X523622Y244094D02*
X531496D01*
X523622Y236221D02*
X531496D01*
X523622Y228346D02*
X531496D01*
X523622Y224410D02*
X531496D01*
X523622Y220472D02*
X531496D01*
X523622Y216535D02*
X531496D01*
X523622Y212598D02*
X531496D01*
X523622Y208661D02*
X531496D01*
X523622Y204724D02*
X531496D01*
X523622Y200787D02*
X531496D01*
X523622Y196850D02*
X531496D01*
X523622Y192913D02*
X531496D01*
X523622Y188976D02*
X531496D01*
X523622Y185039D02*
X531496D01*
X523622Y181102D02*
X531496D01*
X523622Y177165D02*
X531496D01*
X523622Y173228D02*
X531496D01*
X523622Y169291D02*
X531496D01*
X523622Y165354D02*
X531496D01*
X523622Y161417D02*
X531496D01*
X523622Y157480D02*
X531496D01*
X523622Y153543D02*
X531496D01*
X523622Y149606D02*
X531496D01*
X176082Y413051D02*
X182760Y408878D01*
X171553Y405512D02*
X178372Y401575D01*
X167289Y397820D02*
X174241Y394123D01*
X152991Y365706D02*
X160390Y363013D01*
X150127Y357390D02*
X157616Y354957D01*
X147556Y348979D02*
X155125Y346809D01*
X145280Y340484D02*
X152920Y338579D01*
X143301Y331915D02*
X151003Y330278D01*
X141623Y323281D02*
X149378Y321914D01*
X141623Y323281D02*
X157132Y320547D01*
X140247Y314595D02*
X148045Y313499D01*
X139673Y310235D02*
X147489Y309275D01*
X139176Y305865D02*
X147006Y305042D01*
X138754Y301488D02*
X146598Y300802D01*
X138409Y297104D02*
X146264Y296555D01*
X138754Y301488D02*
X154442Y300115D01*
X138141Y292715D02*
X146004Y292302D01*
X137834Y283925D02*
X145706Y283788D01*
X492126Y137795D02*
Y169291D01*
X452756Y137795D02*
Y169291D01*
X413386Y137795D02*
Y169291D01*
X374016Y137795D02*
Y169291D01*
X334646Y137795D02*
Y169291D01*
X299466Y514760D02*
X302288Y507409D01*
X291312Y511466D02*
X294389Y504218D01*
X283277Y507889D02*
X286605Y500752D01*
X177165Y137795D02*
Y169291D01*
X515748Y137795D02*
Y145669D01*
X507874Y137795D02*
Y145669D01*
X500000Y137795D02*
Y145669D01*
X492126Y137795D02*
Y145669D01*
Y137795D02*
Y153543D01*
X484252Y137795D02*
Y145669D01*
X476378Y137795D02*
Y145669D01*
X468504Y137795D02*
Y145669D01*
X460630Y137795D02*
Y145669D01*
X452756Y137795D02*
Y145669D01*
Y137795D02*
Y153543D01*
X444882Y137795D02*
Y145669D01*
X433071Y137795D02*
Y145669D01*
Y137795D02*
Y153543D01*
X437008Y137795D02*
Y145669D01*
X425197Y137795D02*
Y145669D01*
X429134Y137795D02*
Y145669D01*
X417323Y137795D02*
Y145669D01*
X421260Y137795D02*
Y145669D01*
X409449Y137795D02*
Y145669D01*
X413386Y137795D02*
Y145669D01*
Y137795D02*
Y153543D01*
X401575Y137795D02*
Y145669D01*
X405512Y137795D02*
Y145669D01*
X393701Y137795D02*
Y145669D01*
Y137795D02*
Y153543D01*
X397638Y137795D02*
Y145669D01*
X385366Y531458D02*
X385504Y523585D01*
X385827Y137795D02*
Y145669D01*
X389764Y137795D02*
Y145669D01*
X380970Y531343D02*
X381245Y523473D01*
X377953Y137795D02*
Y145669D01*
X381890Y137795D02*
Y145669D01*
X372187Y530882D02*
X372737Y523028D01*
X370079Y137795D02*
Y145669D01*
X374016Y137795D02*
Y145669D01*
Y137795D02*
Y153543D01*
X363426Y530116D02*
X364249Y522285D01*
X362205Y137795D02*
Y145669D01*
X366142Y137795D02*
Y145669D01*
X354696Y529044D02*
X355792Y521246D01*
X358268Y137795D02*
Y145669D01*
X354331Y137795D02*
Y145669D01*
Y137795D02*
Y153543D01*
X346010Y527668D02*
X347377Y519914D01*
X346010Y527668D02*
X348745Y512159D01*
X350394Y137795D02*
Y145669D01*
X346457Y137795D02*
Y145669D01*
X337377Y525990D02*
X339014Y518288D01*
X342520Y137795D02*
Y145669D01*
X338583Y137795D02*
Y145669D01*
X333083Y525038D02*
X334855Y517366D01*
X334646Y137795D02*
Y145669D01*
Y137795D02*
Y153543D01*
X330709Y137795D02*
Y145669D01*
X324550Y522910D02*
X326588Y515305D01*
X326772Y137795D02*
Y145669D01*
X322835Y137795D02*
Y145669D01*
X316095Y520486D02*
X318397Y512956D01*
X318898Y137795D02*
Y145669D01*
X314961Y137795D02*
Y145669D01*
Y137795D02*
Y153543D01*
X307731Y517768D02*
X310294Y510323D01*
X307087Y137795D02*
Y145669D01*
X299213Y137795D02*
Y145669D01*
X291339Y137795D02*
Y145669D01*
X283465Y137795D02*
Y145669D01*
X275373Y504033D02*
X278947Y497017D01*
X275590Y137795D02*
Y145669D01*
Y137795D02*
Y153543D01*
X267717Y137795D02*
Y145669D01*
X259842Y137795D02*
Y145669D01*
X251969Y137795D02*
Y145669D01*
X241660Y483374D02*
X246289Y477004D01*
X244094Y137795D02*
Y145669D01*
X236221Y137795D02*
Y145669D01*
Y137795D02*
Y153543D01*
X228346Y137795D02*
Y145669D01*
X220472Y137795D02*
Y145669D01*
X212598Y137795D02*
Y145669D01*
X204724Y137795D02*
Y145669D01*
X196850Y137795D02*
Y145669D01*
Y137795D02*
Y153543D01*
X185039Y137795D02*
Y145669D01*
X188976Y137795D02*
Y145669D01*
X177165Y137795D02*
Y145669D01*
Y137795D02*
Y153543D01*
X181102Y137795D02*
Y145669D01*
X169291Y137795D02*
Y145669D01*
X173228Y137795D02*
Y145669D01*
X161417Y137795D02*
Y145669D01*
X165354Y137795D02*
Y145669D01*
X153543Y137795D02*
Y145669D01*
X157480Y137795D02*
Y145669D01*
Y137795D02*
Y153543D01*
X145669Y137795D02*
Y145669D01*
X149606Y137795D02*
Y145669D01*
X141732Y137795D02*
Y145669D01*
M02*
